<svg width="0" height="0" fill="none" style="visibility: hidden; position: absolute;" aria-hidden="true">
    <symbol id="kenarts" xmlns="http://www.w3.org/2000/svg" width="413.000000pt" height="129.000000pt" viewBox="0 0 413.000000 129.000000" preserveAspectRatio="xMidYMid meet">
        <g transform="translate(0.000000,129.000000) scale(0.100000,-0.100000)" fill="#ff0000" stroke="none">
            <path d="M3695 1178 c-48 -17 -94 -56 -117 -101 -17 -33 -22 -60 -22 -122 -1 -113 28 -168 160 -305 121 -126 144 -166 144 -249 0 -51 -3 -62 -22 -75 -72 -51 -138 12 -138 132 l0 42 -52 0 c-29 0 -63 3 -75 6 -22 6 -23 4 -23 -58 0 -167 84 -273 235 -296 165 -26 256 75 242 268 -9 122 -46 188 -181 323 -97 96 -126 146 -126 215 0 38 5 53 23 70 53 50 127 8 127 -71 l0 -44 53 -7 c28 -3 65 -6 81 -6 l29 0 -6 66 c-11 113 -59 184 -146 213 -42 14 -145 13 -186 -1z"/>
            <path d="M110 654 l0 -526 48 6 c26 4 62 10 79 13 l33 5 0 167 c1 154 3 169 24 211 l24 45 14 -35 c8 -19 43 -109 78 -198 l64 -164 45 6 c120 16 123 17 116 34 -3 10 -54 133 -112 274 l-105 257 111 216 112 215 -84 0 -84 0 -99 -209 -99 -210 -3 210 -2 209 -80 0 -80 0 0 -526z"/>
            <path d="M710 695 c0 -349 3 -485 11 -485 11 0 277 25 377 36 l52 5 0 70 0 69 -52 -1 c-29 0 -90 -4 -135 -7 l-83 -7 0 137 0 137 53 5 c28 4 77 7 107 9 l55 2 3 69 3 69 -111 -8 -110 -7 0 131 0 131 135 0 135 0 0 65 0 65 -220 0 -220 0 0 -485z"/>
            <path d="M1250 720 l0 -461 73 3 72 3 5 320 5 320 78 -265 c120 -406 108 -372 132 -366 11 3 48 6 83 6 l62 0 0 450 0 450 -75 0 -75 0 -1 -252 0 -253 -78 250 -77 250 -102 3 -102 3 0 -461z"/>
            <path d="M1986 1148 c-14 -67 -156 -850 -156 -859 0 -5 33 -9 74 -9 83 0 76 -8 92 95 12 79 6 75 109 75 103 0 97 4 109 -75 17 -103 8 -95 97 -95 71 0 79 2 79 19 0 17 -80 470 -133 751 l-23 125 -121 3 -120 3 -7 -33z m154 -338 c16 -102 32 -195 35 -207 5 -22 3 -23 -71 -23 l-76 0 6 27 c6 29 65 385 67 400 2 20 10 -23 39 -197z"/>
            <path d="M2468 731 l-3 -449 35 -6 c19 -3 56 -6 83 -6 l47 0 0 190 0 190 40 0 c60 0 97 -23 109 -68 6 -20 11 -95 11 -167 0 -72 4 -135 8 -141 4 -7 45 -15 91 -19 69 -6 82 -5 75 6 -4 8 -11 90 -14 184 -7 188 -16 222 -71 253 -16 10 -29 19 -29 22 0 3 13 12 29 22 46 26 64 71 69 173 5 103 -8 161 -44 204 -40 48 -102 61 -281 61 l-153 0 -2 -449z m298 298 c15 -17 18 -36 18 -110 0 -111 -13 -130 -98 -137 l-56 -4 0 136 0 136 58 0 c47 0 63 -4 78 -21z"/>
            <path d="M3010 1115 l0 -65 80 0 80 0 0 -410 0 -410 24 0 c12 0 51 -3 85 -6 l61 -7 0 411 0 411 83 3 82 3 3 68 3 67 -251 0 -250 0 0 -65z"/>
        </g>
    </symbol>
    <symbol id="menu" enable-background="new 0 0 24 24" height="" viewBox="0 0 24 24" width="" xmlns="http://www.w3.org/2000/svg">
        <g>
            <path d="m21.5 24h-19c-1.379 0-2.5-1.122-2.5-2.5v-19c0-1.378 1.121-2.5 2.5-2.5h19c1.379 0 2.5 1.122 2.5 2.5v19c0 1.378-1.121 2.5-2.5 2.5zm-19-23c-.827 0-1.5.673-1.5 1.5v19c0 .827.673 1.5 1.5 1.5h19c.827 0 1.5-.673 1.5-1.5v-19c0-.827-.673-1.5-1.5-1.5z"/>
        </g>
        <g>
            <path d="m16.5 8h-9c-.276 0-.5-.224-.5-.5s.224-.5.5-.5h9c.276 0 .5.224.5.5s-.224.5-.5.5z"/>
        </g>
        <g>
            <path d="m16.5 12.5h-9c-.276 0-.5-.224-.5-.5s.224-.5.5-.5h9c.276 0 .5.224.5.5s-.224.5-.5.5z"/>
        </g>
        <g>
            <path d="m16.5 17h-9c-.276 0-.5-.224-.5-.5s.224-.5.5-.5h9c.276 0 .5.224.5.5s-.224.5-.5.5z"/>
        </g>
    </symbol>
</svg>